<?xml version="1.0" encoding="UTF-8"?><svg id="a" xmlns="http://www.w3.org/2000/svg" width="22.75" height="15.17" viewBox="0 0 22.75 15.17"><g id="b"><rect id="c" x="-.12" y="-.08" width="23" height="15.33" fill="#fff"/><rect id="d" x="-.12" y="-.08" width="23" height="5.11" fill="#ed2024"/><rect id="e" x="-.12" y="10.14" width="23" height="5.11" fill="#278e43"/><path id="f" d="M11.37,3.75l.28,1.98.85-1.81-.31,1.97,1.34-1.48-.88,1.8,1.72-1.01-1.37,1.46,1.94-.46-1.73.99,1.99.13-1.95.43,1.86.72-1.99-.16,1.57,1.23-1.85-.75,1.14,1.64-1.55-1.26.6,1.91-1.11-1.66.02,2-.57-1.92-.57,1.92.02-2-1.11,1.66.6-1.91-1.55,1.26,1.14-1.64-1.85.75,1.57-1.23-1.99.16,1.86-.72-1.95-.43,1.99-.13-1.74-.99,1.94.46-1.37-1.46,1.72,1.01-.88-1.8,1.34,1.48-.31-1.97.85,1.81.28-1.98h0Z" fill="#febd11" fill-rule="evenodd"/></g></svg>